<svg width="40px" height="40px" viewBox="0 0 40 40" version="1.1" xmlns="http://www.w3.org/2000/svg" xmlns:xlink="http://www.w3.org/1999/xlink"><path d="M39.414,40 L36.586,40 L40,36.586 L40,39.414 L39.414,40 L39.414,40 Z M31.414,40 L28.586,40 L40,28.586 L40,31.414 L31.414,40 L31.414,40 Z M23.414,40 L20.586,40 L40,20.586 L40,23.414 L23.414,40 L23.414,40 Z M15.414,40 L12.586,40 L40,12.586 L40,15.414 L15.414,40 L15.414,40 Z M7.414,40 L4.586,40 L40,4.586 L40,7.414 L7.414,40 L7.414,40 Z M0,39.414 L0,36.586 L36.586,0 L39.414,0 L0,39.414 L0,39.414 Z M0,31.414 L0,28.586 L28.563,0.022 L31.392,0.022 L0,31.414 L0,31.414 Z M0,23.414 L0,20.586 L20.586,0 L23.414,0 L0,23.414 L0,23.414 Z M0,15.414 L0,12.586 L12.586,0 L15.414,0 L0,15.414 L0,15.414 Z M0,7.414 L0,4.586 L4.586,0 L7.414,0 L0,7.414 L0,7.414 Z" id="path-1" stroke="none" fill-opacity="0.2" fill="#000000" fill-rule="evenodd"></path></svg>